# AST/ASF file generated using VICON BodyLanguage
# -----------------------------------------------
:version 1.10
:name VICON
:units
  mass 1.0
  length 0.45
  angle deg
:documentation
   .ast/.asf automatically generated from VICON data using
   VICON BodyBuilder and BodyLanguage model FoxedUp or BRILLIANT.MOD
:root
   order TX TY TZ RX RY RZ
   axis XYZ
   position 0 0 0  
   orientation 0 0 0 
:bonedata
  begin
     id 1 
     name lhipjoint
     direction 0.693937 -0.600361 0.397515 
     length 2.37164 
     axis 0 0 0  XYZ
  end
  begin
     id 2 
     name lfemur
     direction 0.34202 -0.939693 0  
     length 6.18497  
     axis 0 0 20  XYZ
    dof rx ry rz
    limits (-160.0 20.0)
           (-70.0 70.0)
           (-60.0 70.0)
  end
  begin
     id 3 
     name ltibia
     direction 0.34202 -0.939693 0   
     length 6.91601   
     axis 0 0 20   XYZ
    dof rx
    limits (-10.0 170.0)
  end
  begin
     id 4 
     name lfoot
     direction 0.0978718 -0.2689 0.958182   
     length 1.81453   
     axis -90 7.62852e-016 20   XYZ
    dof rx rz
    limits (-45.0 90.0)
           (-70.0 20.0)
  end
  begin
     id 5 
     name ltoes
     direction 1.53569e-011 -4.21951e-011 1   
     length 0.912052   
     axis -90 7.62852e-016 20   XYZ
    dof rx
    limits (-90.0 20.0)
  end
  begin
     id 6 
     name rhipjoint
     direction -0.643996 -0.637876 0.422354   
     length 2.23216  
     axis 0 0 0  XYZ 
  end
  begin
     id 7 
     name rfemur
     direction -0.34202 -0.939693 0   
     length 6.15404   
     axis 0 0 -20   XYZ
    dof rx ry rz
    limits (-160.0 20.0)
           (-70.0 70.0)
           (-70.0 60.0)
  end
  begin
     id 8 
     name rtibia
     direction -0.34202 -0.939693 0   
     length 6.86744   
     axis 0 0 -20   XYZ
    dof rx
    limits (-10.0 170.0)
 end
 begin
     id 9 
     name rfoot
     direction -0.118701 -0.326127 0.937844   
     length 1.9243  
     axis -90 -7.62852e-016 -20   XYZ
    dof rx rz
    limits (-45.0 90.0)
           (-20.0 70.0)
  end
  begin
     id 10 
     name rtoes
     direction -1.5356e-011 -4.2181e-011 1   
     length 0.958865   
     axis -90 -7.62852e-016 -20   XYZ
    dof rx
    limits (-90.0 20.0)
  end
  begin
     id 11 
     name lowerback
     direction 0.0310826 0.968686 -0.246334   
     length 2.00021   
     axis 0 0 0   XYZ
    dof rx ry rz
    limits (-20.0 45.0)
           (-30.0 30.0)
           (-30.0 30.0)
  end
  begin
     id 12 
     name upperback
     direction -0.0152834 0.999474 -0.0286152   
     length 2.03728   
     axis 0 0 0   XYZ
    dof rx ry rz
    limits (-20.0 45.0)
           (-30.0 30.0)
           (-30.0 30.0)
  end
  begin
     id 13 
     name thorax
     direction -0.0323701 0.996236 0.0804149   
     length 2.16   
     axis 0 0 0   XYZ
    dof rx ry rz
    limits (-20.0 45.0)
           (-30.0 30.0)
           (-30.0 30.0)
  end
  begin
     id 14 
     name lowerneck
     direction 0.0307935 0.982251 0.185027   
     length 1.43558   
     axis 0 0 0   XYZ
    dof rx ry rz
    limits (-20.0 45.0)
           (-30.0 30.0)
           (-30.0 30.0)
  end
  begin
     id 15 
     name upperneck
     direction -0.0927153 0.994775 0.0427454   
     length 1.44603   
     axis 0 0 0   XYZ
    dof rx ry rz
    limits (-20.0 45.0)
           (-30.0 30.0)
           (-30.0 30.0)
  end
  begin
     id 16
     name head
     direction -0.0341265 0.999406 -0.00472033  
     length 1.45931  
     axis 0 0 0   XYZ
    dof rx ry rz
    limits (-20.0 45.0)
           (-30.0 30.0)
           (-30.0 30.0)
  end
  begin
     id 17 
     name lclavicle
     direction 0.820755 0.555306 -0.134151  
     length 2.66075  
     axis 0 0 0   XYZ
    dof ry rz
    limits (-20.0 10.0)
           (0.0 20.0)
  end
  begin
     id 18 
     name lhumerus
     direction 1 -4.48971e-011 5.24853e-027   
     length 5.0546   
     axis -180 -30 -90   XYZ
    dof rx ry rz
    limits (-60.0 90.0)
           (-90.0 90.0)
           (-90.0 90.0)
  end
  begin
     id 19
     name lradius
     direction 1 -4.48971e-011 2.76575e-028   
     length 3.39013   
     axis -180 -30 -90   XYZ
    dof rx
    limits (-10.0 170.0)
  end
  begin
     id 20
     name lwrist
     direction 1 -4.48939e-011 -2.27826e-027   
     length 1.69507   
     axis 2.17013e-015 90 90   XYZ
    dof ry
    limits (-180.0 0.0)
 end
  begin
     id 21 
     name lhand
     direction 1 -4.49009e-011 -4.55652e-027   
     length 0.572425   
     axis 2.90745e-015 90 90   XYZ
    dof rx rz
    limits (-90.0 90.0)
           (-45.0 45.0)
  end
  begin
     id 22 
     name lfingers
     direction 1 -4.48955e-011 -9.11303e-027   
     length 0.461504   
     axis 5.81489e-015 90 90   XYZ
    dof rx
    limits (0.0 90.0)
  end
  begin
     id 23
     name lthumb
     direction 0.707107 -6.34929e-011 0.707107   
     length 0.66263   
     axis -90 45 2.85299e-015   XYZ
    dof rx rz
    limits (-45.0 45.0)
           (-45.0 45.0)
  end
  begin
     id 24 
     name rclavicle
     direction -0.754477 0.632921 -0.173712   
     length 2.73081  
     axis 0 0 0   XYZ 
    dof ry rz
    limits (-10.0 20.0)
           (-20.0 0.0)
  end
  begin
     id 25 
     name rhumerus
     direction -1 -4.48969e-011 5.1496e-027  
     length 5.0701   
     axis -180 30 90   XYZ
    dof rx ry rz
    limits (-90.0 60.0)
           (-90.0 90.0)
           (-90.0 90.0)
  end
  begin
     id 26 
     name rradius
     direction -1 -4.48967e-011 -7.15624e-028   
     length 3.14957   
     axis -180 30 90   XYZ
    dof rx
    limits (-10.0 170.0)
  end
  begin
     id 27 
     name rwrist
     direction -1 -4.48938e-011 -2.27826e-027   
     length 1.57479   
     axis 2.17013e-015 -90 -90   XYZ
    dof ry
    limits (-180.0 0.0)
  end
  begin
     id 28
     name rhand
     direction -1 -4.49008e-011 -4.55652e-027   
     length 0.718191   
     axis 2.90745e-015 -90 -90   XYZ
    dof rx rz
    limits (-90.0 90.0)
           (-45.0 45.0)
  end
  begin
     id 29
     name rfingers
     direction -1 -4.48953e-011 -9.11303e-027   
     length 0.579024   
     axis 5.81489e-015 -90 -90   XYZ
    dof rx
    limits (0.0 90.0)
  end
  begin
     id 30
     name rthumb
     direction -0.707107 -6.34937e-011 0.707107   
     length 0.831366   
     axis -90 -45 -2.85299e-015   XYZ
    dof rx rz
    limits (-45.0 45.0)
           (-45.0 45.0)
  end
:hierarchy
  begin
    root lhipjoint rhipjoint lowerback
    lhipjoint lfemur
    lfemur ltibia
    ltibia lfoot
    lfoot ltoes
    rhipjoint rfemur
    rfemur rtibia
    rtibia rfoot
    rfoot rtoes
    lowerback upperback
    upperback thorax
    thorax lowerneck lclavicle rclavicle
    lowerneck upperneck
    upperneck head
    lclavicle lhumerus
    lhumerus lradius
    lradius lwrist
    lwrist lhand lthumb
    lhand lfingers
    rclavicle rhumerus
    rhumerus rradius
    rradius rwrist
    rwrist rhand rthumb
    rhand rfingers
  end

#!OML:ASF H:\Male1\Project 1\Capture day 1\Session 1\Male1.ASF
:FULLY-SPECIFIED
:DEGREES
142
root 9.08603 11.1005 0.260277 154.415 -84.9793 -149.469
lowerback 40.3005 2.17076 0.431872
upperback 13.7654 0.607622 -1.27234
thorax -4.10905 -0.473741 -1.72752
lowerneck -12.8783 4.99778 7.11092
upperneck 33.4313 4.22122 -0.725981
head 13.6751 2.27533 -0.963961
rclavicle -1.03368e-014 -4.37326e-015
rhumerus 27.2685 26.5468 -41.6469
rradius 55.7054
rwrist -35.7551
rhand -16.6347 -2.2099
rfingers 7.12502
rthumb 9.58781 -31.9717
lclavicle -1.03368e-014 -4.37326e-015
lhumerus 42.8345 -17.4734 29.7307
lradius 50.4732
lwrist 13.6675
lhand -11.7878 12.6203
lfingers 7.12502
lthumb 14.2615 42.1106
rfemur -78.0154 3.53088 21.698
rtibia 92.6744
rfoot -21.0262 -17.6616
rtoes -22.4262
lfemur -77.8308 0.0956553 -17.5053
ltibia 95.6552
lfoot -22.886 12.5648
ltoes -15.3308
143
root 9.13084 11.0271 0.261277 156.735 -84.9603 -152.3
lowerback 40.2743 2.18689 0.0728334
upperback 13.9355 0.472944 -1.13873
thorax -3.92255 -0.569083 -1.35256
lowerneck -13.2971 5.28176 6.67702
upperneck 33.8444 4.67196 -0.648425
head 13.952 2.42207 -0.77838
rclavicle -1.07344e-014 -1.47101e-014
rhumerus 29.5002 26.9204 -39.9453
rradius 55.132
rwrist -35.8811
rhand -16.7692 -2.05617
rfingers 7.12502
rthumb 9.458 -31.8239
lclavicle -1.07344e-014 -1.47101e-014
lhumerus 42.5145 -16.31 30.4316
lradius 51.0465
lwrist 13.9895
lhand -12.0889 12.9644
lfingers 7.12502
lthumb 13.9714 42.475
rfemur -78.2806 3.50074 21.5492
rtibia 93.2973
rfoot -20.8895 -17.5308
rtoes -22.3224
lfemur -77.9624 0.221524 -17.7532
ltibia 96.2046
lfoot -22.789 12.494
ltoes -15.0985
144
root 9.17456 10.95 0.261 155.701 -84.8503 -151.811
lowerback 40.2513 2.10053 -0.401576
upperback 14.2411 0.167556 -0.730417
thorax -3.58872 -0.776417 -0.568667
lowerneck -13.745 5.61469 6.19735
upperneck 33.5058 5.5548 -1.33535
head 13.9374 2.65967 -0.816195
rclavicle 8.74653e-015 4.21423e-014
rhumerus 32.557 27.3923 -37.8275
rradius 54.599
rwrist -35.6161
rhand -16.6887 -1.90022
rfingers 7.12502
rthumb 9.53573 -31.6644
lclavicle 8.74653e-015 4.21423e-014
lhumerus 41.5486 -14.529 31.5586
lradius 51.7041
lwrist 14.1681
lhand -12.4519 13.1584
lfingers 7.12502
lthumb 13.6215 42.6927
rfemur -78.4435 3.49382 21.7283
rtibia 93.9174
rfoot -20.8124 -17.4305
rtoes -22.1228
lfemur -78.1337 0.460202 -17.7153
ltibia 96.8392
lfoot -22.6974 12.3386
ltoes -15.1063
145
root 9.21656 10.8669 0.258374 153.544 -84.8112 -150.25
lowerback 40.3539 2.03164 0.210775
upperback 14.2588 0.293427 -0.822324
thorax -3.59154 -0.692477 -1.02634
lowerneck -13.1814 5.37039 6.48382
upperneck 32.5622 5.21602 -1.3226
head 13.3955 2.56687 -0.925867
rclavicle -1.98785e-015 -2.5842e-014
rhumerus 33.0095 27.0288 -37.7209
rradius 54.0874
rwrist -34.8483
rhand -16.3997 -1.97122
rfingers 7.12502
rthumb 9.81455 -31.7225
lclavicle -1.98785e-015 -2.5842e-014
lhumerus 41.9653 -14.393 31.7907
lradius 52.533
lwrist 14.7315
lhand -12.6176 13.3559
lfingers 7.12502
lthumb 13.4617 42.9009
rfemur -78.5403 3.4124 21.9769
rtibia 94.5862
rfoot -20.7552 -17.4046
rtoes -22.1697
lfemur -78.3278 0.596386 -17.6016
ltibia 97.5335
lfoot -22.5794 12.2028
ltoes -15.4072
146
root 9.25373 10.7831 0.257562 153.77 -84.87 -151.127
lowerback 40.291 1.92467 0.349757
upperback 14.2809 0.209148 -0.882115
thorax -3.54851 -0.726917 -1.13073
lowerneck -12.6149 5.37844 6.8252
upperneck 31.8335 5.3356 -1.69406
head 12.9939 2.6225 -1.12119
rclavicle -7.55382e-015 1.35174e-014
rhumerus 33.8126 27.2509 -37.6974
rradius 53.6233
rwrist -34.3642
rhand -16.0342 -2.38494
rfingers 7.12502
rthumb 10.1672 -32.1193
lclavicle -7.55382e-015 1.35174e-014
lhumerus 41.6778 -14.037 32.5168
lradius 53.3615
lwrist 15.3458
lhand -12.3233 13.4395
lfingers 7.12502
lthumb 13.7455 42.9654
rfemur -78.6598 3.26623 21.9621
rtibia 95.31
rfoot -20.6135 -17.3908
rtoes -22.5414
lfemur -78.3908 0.609018 -17.7269
ltibia 98.208
lfoot -22.5117 12.0957
ltoes -15.3132
147
root 9.29081 10.6988 0.256459 154.725 -85.0017 -152.773
lowerback 39.9493 1.89538 0.311309
upperback 14.5331 0.138097 -0.848192
thorax -3.16955 -0.774204 -1.0533
lowerneck -12.2764 5.48046 7.56966
upperneck 30.8757 5.7182 -2.75564
head 12.6091 2.76124 -1.5995
rclavicle 5.56597e-015 3.57812e-015
rhumerus 34.8059 27.368 -37.6223
rradius 53.156
rwrist -34.218
rhand -15.8893 -2.66577
rfingers 7.12502
rthumb 10.3069 -32.3932
lclavicle 5.56597e-015 3.57812e-015
lhumerus 41.4418 -13.4908 33.4963
lradius 54.2438
lwrist 16.0197
lhand -12.3178 13.4586
lfingers 7.12502
lthumb 13.7507 42.9842
rfemur -78.7625 3.03771 21.8569
rtibia 96.0456
rfoot -20.4737 -17.3327
rtoes -22.8648
lfemur -78.3769 0.578132 -17.9609
ltibia 98.8573
lfoot -22.4194 12.06
ltoes -15.0402
148
root 9.32549 10.6077 0.253776 154.994 -85.0025 -153.764
lowerback 39.9401 1.9028 0.347058
upperback 14.5719 0.154856 -0.802686
thorax -3.12308 -0.771886 -1.03007
lowerneck -12.0294 5.33626 7.40858
upperneck 29.9891 5.59126 -2.64372
head 12.1761 2.71415 -1.54675
rclavicle -2.8625e-014 -2.98177e-014
rhumerus 35.3388 27.6555 -37.8619
rradius 52.7649
rwrist -33.9823
rhand -15.8172 -2.60709
rfingers 7.12502
rthumb 10.3765 -32.3311
lclavicle -2.8625e-014 -2.98177e-014
lhumerus 41.0369 -13.3209 34.48
lradius 55.2555
lwrist 16.7965
lhand -12.7996 13.5368
lfingers 7.12502
lthumb 13.2864 43.0933
rfemur -78.8283 2.88495 21.9138
rtibia 96.7742
rfoot -20.3608 -17.2616
rtoes -23.0267
lfemur -78.3595 0.220506 -17.8457
ltibia 99.5813
lfoot -22.3982 12.4153
ltoes -14.8084
149
root 9.36554 10.5262 0.247181 151.621 -84.6754 -151.253
lowerback 40.0371 1.89588 0.637541
upperback 14.5174 0.259247 -0.652941
thorax -3.2064 -0.722234 -1.05798
lowerneck -11.4714 5.3895 7.53521
upperneck 28.7175 5.85247 -3.0156
head 11.589 2.81999 -1.67242
rclavicle -2.3059e-014 -2.22639e-014
rhumerus 35.5863 28.3684 -38.1293
rradius 52.5459
rwrist -33.5033
rhand -15.7233 -2.58542
rfingers 7.12502
rthumb 10.4671 -32.3048
lclavicle -2.3059e-014 -2.22639e-014
lhumerus 40.2626 -13.3898 35.5872
lradius 56.3021
lwrist 17.4083
lhand -13.254 13.7828
lfingers 7.12502
lthumb 12.8484 43.3674
rfemur -78.5378 3.004 22.4831
rtibia 97.3144
rfoot -20.2291 -17.3588
rtoes -23.1712
lfemur -78.2386 0.804061 -17.5182
ltibia 100.297
lfoot -22.33 12.05
ltoes -14.6969
150
root 9.40641 10.4405 0.241184 147.098 -84.2696 -147.691
lowerback 40.1013 1.83022 1.23021
upperback 14.5769 0.381281 -0.54372
thorax -3.14726 -0.655952 -1.29189
lowerneck -11.1839 5.41683 7.76715
upperneck 27.3916 6.06496 -3.49479
head 11.058 2.90635 -1.85375
rclavicle 1.15295e-014 6.36111e-015
rhumerus 35.6923 28.9936 -38.3664
rradius 52.4836
rwrist -33.0368
rhand -15.4102 -2.80477
rfingers 7.12502
rthumb 10.7691 -32.5087
lclavicle 1.15295e-014 6.36111e-015
lhumerus 39.6565 -13.5674 36.4973
lradius 57.3562
lwrist 17.8558
lhand -13.4442 13.9301
lfingers 7.12502
lthumb 12.665 43.5261
rfemur -78.1346 3.15564 23.2015
rtibia 97.9027
rfoot -20.2441 -17.4566
rtoes -22.9796
lfemur -78.116 1.98577 -17.2692
ltibia 101.061
lfoot -22.238 11.1076
ltoes -14.3506
151
root 9.44725 10.3506 0.241658 149.823 -84.4584 -151.301
lowerback 40.0573 1.82731 1.16581
upperback 14.5602 0.351592 -0.655672
thorax -3.15439 -0.666948 -1.36604
lowerneck -10.6326 5.32577 7.97068
upperneck 25.9454 6.08374 -3.84971
head 10.4282 2.91892 -2.01412
rclavicle 1.07344e-014 1.74931e-014
rhumerus 35.5608 29.6905 -38.6896
rradius 52.5325
rwrist -32.5085
rhand -14.6759 -3.0093
rfingers 7.12502
rthumb 11.4774 -32.6751
lclavicle 1.07344e-014 1.74931e-014
lhumerus 38.9217 -13.9975 37.2888
lradius 58.5135
lwrist 18.3219
lhand -13.6636 13.3516
lfingers 7.12502
lthumb 12.4535 42.9606
rfemur -78.1225 2.88367 22.8988
rtibia 98.6999
rfoot -20.2163 -17.2246
rtoes -22.7144
lfemur -77.8658 2.01189 -17.7279
ltibia 101.65
lfoot -22.2437 11.0113
ltoes -13.7215
152
root 9.47303 10.2319 0.244911 159.233 -84.992 -161.501
lowerback 39.8448 1.92946 0.553726
upperback 14.5471 0.255995 -0.883867
thorax -3.1172 -0.719653 -1.25754
lowerneck -10.2272 5.20916 8.09648
upperneck 24.6535 6.02174 -4.05215
head 9.88579 2.90072 -2.11349
rclavicle -5.56597e-015 5.1684e-015
rhumerus 35.3994 30.4235 -38.7995
rradius 52.6382
rwrist -31.9315
rhand -13.934 -2.8992
rfingers 7.12502
rthumb 12.1927 -32.5238
lclavicle -5.56597e-015 5.1684e-015
lhumerus 38.1041 -14.5735 38.0316
lradius 59.7886
lwrist 18.7988
lhand -14.2804 12.3614
lfingers 7.12502
lthumb 11.8587 42.0056
rfemur -78.6253 2.29649 21.852
rtibia 99.8823
rfoot -20.0902 -16.7891
rtoes -22.7585
lfemur -77.809 1.56214 -18.8875
ltibia 102.365
lfoot -22.2891 11.3403
ltoes -13.4889
153
root 9.52148 10.1562 0.245178 163.614 -85.1872 -166.712
lowerback 39.6471 1.96622 0.332461
upperback 14.5347 0.23258 -0.937027
thorax -3.07461 -0.733415 -1.1915
lowerneck -10.2289 5.20458 7.98493
upperneck 23.8013 6.04917 -3.95637
head 9.57626 2.92561 -2.05193
rclavicle 7.15625e-015 2.82274e-014
rhumerus 35.4063 31.38 -38.4687
rradius 52.8835
rwrist -31.5671
rhand -13.3 -2.56307
rfingers 7.12502
rthumb 12.804 -32.1504
lclavicle 7.15625e-015 2.82274e-014
lhumerus 37.1024 -15.1814 38.6974
lradius 61.2135
lwrist 19.3115
lhand -14.3422 12.2548
lfingers 7.12502
lthumb 11.7991 41.9024
rfemur -78.528 1.94583 21.4491
rtibia 100.589
rfoot -20.0732 -16.5422
rtoes -22.8227
lfemur -77.5255 1.61788 -19.4854
ltibia 102.828
lfoot -22.2261 11.2942
ltoes -13.6077
154
root 9.56309 10.0541 0.238057 159.728 -84.9737 -163.793
lowerback 39.5353 1.96252 0.600251
upperback 14.5378 0.337162 -0.774251
thorax -3.03129 -0.682998 -1.19532
lowerneck -10.1495 5.24891 7.85365
upperneck 22.7829 6.18572 -3.99217
head 9.20778 2.9885 -2.02226
rclavicle 3.57812e-015 -1.15295e-014
rhumerus 35.6623 32.5771 -37.6747
rradius 53.2661
rwrist -31.306
rhand -12.8388 -2.33953
rfingers 7.12502
rthumb 13.2486 -31.8985
lclavicle 3.57812e-015 -1.15295e-014
lhumerus 35.9556 -15.7844 39.2627
lradius 62.6741
lwrist 19.8889
lhand -13.9365 12.7619
lfingers 7.12502
lthumb 12.1903 42.3867
rfemur -78.3003 2.0737 21.9094
rtibia 101.299
rfoot -20.1446 -16.5183
rtoes -22.3801
lfemur -77.4628 1.96969 -19.0961
ltibia 103.649
lfoot -22.1439 11.0564
ltoes -13.7756
155
root 9.60937 9.94213 0.230591 157.177 -84.8218 -162.272
lowerback 39.4544 1.97694 0.860209
upperback 14.5695 0.44953 -0.690693
thorax -2.96472 -0.626373 -1.2814
lowerneck -9.80186 5.21528 8.04827
upperneck 21.3245 6.25771 -4.4138
head 8.66439 3.01784 -2.19106
rclavicle 1.94809e-014 1.07344e-014
rhumerus 35.8095 33.6031 -36.9286
rradius 53.6572
rwrist -30.8067
rhand -12.4642 -2.22814
rfingers 7.12502
rthumb 13.6097 -31.7633
lclavicle 1.94809e-014 1.07344e-014
lhumerus 34.9426 -16.5364 39.6094
lradius 64.1128
lwrist 20.7529
lhand -13.7386 12.9868
lfingers 7.12502
lthumb 12.3811 42.6002
rfemur -78.1522 2.11264 22.2363
rtibia 102.014
rfoot -20.1278 -16.3531
rtoes -21.552
lfemur -77.4149 2.29264 -18.8491
ltibia 104.46
lfoot -21.9878 10.8102
ltoes -14.1694
